<?xml version="1.0" encoding="utf-8"?>
<!-- Generator: Adobe Illustrator 19.0.0, SVG Export Plug-In . SVG Version: 6.00 Build 0)  -->
<svg version="1.1" id="Layer_1" xmlns="http://www.w3.org/2000/svg" xmlns:xlink="http://www.w3.org/1999/xlink" x="0px" y="0px"
	 viewBox="0 0 226.8 226.8" style="enable-background:new 0 0 226.8 226.8;" xml:space="preserve">
<style type="text/css">
	.st0{fill:#F69220;}
	.st1{fill:#EC2024;}
	.st2{fill:#E11F26;}
	.st3{fill:#F05B26;}
	.st4{fill:#0D72B9;}
	.st5{fill:#29A9E1;}
	.st6{fill:#92298D;}
	.st7{fill:#3BB44A;}
	.st8{fill:#019147;}
	.st9{fill:#108948;}
	.st10{fill:#D0D2D3;}
</style>
<g id="XMLID_58_">
	<g id="XMLID_283_">
		<g id="XMLID_311_">
			<path id="XMLID_315_" class="st0" d="M93,93.5c-0.1-0.8-0.6-1.4-1.2-1.9c-1.3-0.9-3.1-0.6-4,0.7l-8.4,11.9
				c-0.9,1.3-0.6,3.1,0.7,4c0.5,0.3,1.1,0.5,1.6,0.5c0.2,0,0.3,0,0.5,0c0.8-0.1,1.4-0.6,1.9-1.2l8.4-11.9C93,95,93.2,94.2,93,93.5z"
				/>
			<g id="XMLID_312_">
				<path id="XMLID_314_" class="st1" d="M100.9,104.2l-8.4-11.9c-0.4-0.6-1.1-1-1.9-1.2c-0.8-0.1-1.5,0-2.2,0.5
					c-1.3,0.9-1.6,2.7-0.7,4l8.4,11.9c0.6,0.8,1.5,1.2,2.4,1.2c0.6,0,1.1-0.2,1.6-0.5C101.5,107.3,101.8,105.5,100.9,104.2"/>
				<path id="XMLID_313_" class="st2" d="M90.2,91.1C90.1,91.1,90.1,91.1,90.2,91.1c-0.9,0-1.8,0.5-2.3,1.2l-0.2,0.3
					c-0.5,0.9-0.5,2.1,0.2,3.1l2.4,3.4l2.4-3.4c0.4-0.6,0.6-1.4,0.5-2.2c-0.1-0.3-0.2-0.6-0.3-0.9l-0.2-0.3c-0.4-0.6-1.1-1-1.9-1.2
					C90.5,91.1,90.3,91.1,90.2,91.1"/>
			</g>
		</g>
		<path id="XMLID_310_" class="st3" d="M72.7,113.1H58.1c-1.6,0-2.9,1.3-2.9,2.9c0,1.6,1.3,2.9,2.9,2.9h14.6c1.6,0,2.9-1.3,2.9-2.9
			C75.6,114.4,74.3,113.1,72.7,113.1z"/>
		<path id="XMLID_309_" class="st4" d="M17.4,100.5v-9.7c0-0.9,0.2-1.2,0.3-1.4c0.2-0.2,0.7-0.3,1.3-0.3h1.4c1.4,0,2.6-1.2,2.6-2.6
			c0-1.4-1.2-2.6-2.6-2.6H19c-1,0-1.9,0.2-2.8,0.5c-0.8,0.4-1.6,0.8-2.2,1.5c-0.6,0.6-1.1,1.4-1.4,2.2c-0.3,0.8-0.5,1.8-0.5,2.8v9.7
			c0,1.1-0.3,1.8-0.8,2c-0.3,0.2-0.7,0.3-1.2,0.4c-1.3,0.2-2.3,1.4-2.3,2.7c0,1.4,1,2.5,2.3,2.7c0.5,0.1,0.9,0.2,1.2,0.4
			c0.5,0.3,0.8,0.9,0.8,2v9.7c0,1,0.2,1.9,0.5,2.8c0.3,0.8,0.8,1.6,1.4,2.2c0.6,0.6,1.3,1.1,2.2,1.5c0.8,0.3,1.8,0.5,2.8,0.5h1.4
			c1.4,0,2.6-1.2,2.6-2.6v0c0-1.4-1.2-2.6-2.6-2.6H19c-0.6,0-1.1-0.1-1.3-0.3c-0.1-0.2-0.3-0.5-0.3-1.4v-9.7c0-0.7-0.1-1.5-0.4-2.1
			c-0.3-0.6-0.6-1.2-1-1.7c-0.4-0.5-0.9-0.9-1.5-1.2c-0.1,0-0.2-0.1-0.3-0.1c0.6-0.3,1.2-0.7,1.8-1.3
			C16.9,103.4,17.4,102.1,17.4,100.5z"/>
		<path id="XMLID_308_" class="st5" d="M120.7,102.9c-0.5-0.1-0.9-0.2-1.2-0.4c-0.5-0.3-0.8-0.9-0.8-2v-9.7c0-1-0.2-1.9-0.5-2.8
			c-0.3-0.8-0.8-1.6-1.4-2.2c-0.6-0.6-1.3-1.1-2.2-1.5c-0.8-0.4-1.8-0.5-2.8-0.5h-1.4c-1.4,0-2.6,1.2-2.6,2.6c0,1.4,1.2,2.6,2.6,2.6
			h1.4c0.6,0,1.1,0.1,1.3,0.3c0.1,0.2,0.3,0.5,0.3,1.4v9.7c0,1.6,0.5,2.8,1.5,3.8c0.5,0.5,1.1,1,1.8,1.3c-0.1,0-0.2,0.1-0.3,0.1
			c-0.6,0.3-1.1,0.7-1.5,1.2c-0.4,0.5-0.8,1.1-1,1.7c-0.3,0.7-0.4,1.4-0.4,2.1v9.7c0,0.8-0.2,1.2-0.3,1.4c-0.2,0.2-0.7,0.3-1.3,0.3
			h-1.4c-1.4,0-2.6,1.2-2.6,2.6v0c0,1.4,1.2,2.6,2.6,2.6h1.4c1,0,1.9-0.2,2.8-0.5c0.8-0.3,1.6-0.8,2.2-1.5c0.6-0.6,1.1-1.4,1.4-2.2
			c0.3-0.8,0.5-1.8,0.5-2.8v-9.7c0-1.1,0.3-1.7,0.8-2c0.3-0.2,0.7-0.3,1.2-0.4c1.3-0.2,2.3-1.4,2.3-2.7
			C123,104.3,122,103.1,120.7,102.9z"/>
		<path id="XMLID_307_" class="st6" d="M77.4,74.8c-0.5-0.6-1.2-1-2-1.1c-1.4-0.1-2.7,0.9-2.9,2.3c-0.2,1-0.4,1.7-0.6,2.2
			c-0.4,0.9-0.9,1-1.3,1c-0.1,0-0.5,0-0.8-0.7c-0.3-0.6-0.7-1.3-1.2-2c-0.5-0.8-1.1-1.5-1.8-2.1c-0.8-0.7-1.9-1-3.2-1
			c-1.2,0-2.3,0.3-3.2,0.8c-0.9,0.5-1.7,1.3-2.3,2.2c-0.6,0.9-1.1,2-1.5,3.2c-0.1,0.4-0.2,0.8-0.3,1.3c-0.2,0.8,0,1.6,0.5,2.2
			c0.5,0.6,1.2,1,2,1.1c1.4,0.1,2.7-0.9,2.9-2.3c0.2-1,0.4-1.7,0.6-2.2c0.4-0.9,0.9-1,1.3-1c0.2,0,0.6,0.1,0.9,0.6
			c0.3,0.6,0.7,1.3,1.2,2c0.5,0.8,1.1,1.5,1.8,2.1c0.8,0.7,1.9,1,3.2,1c1.2,0,2.3-0.3,3.3-0.8c0.9-0.5,1.7-1.3,2.3-2.2
			c0.6-0.9,1.1-2,1.5-3.2c0.1-0.4,0.2-0.9,0.3-1.3C78.1,76.3,77.9,75.5,77.4,74.8z"/>
		<g id="XMLID_284_">
			<path id="XMLID_288_" class="st7" d="M51.3,104.2L43,92.3c-0.9-1.3-2.7-1.6-4-0.7c-1.3,0.9-1.6,2.7-0.7,4l8.4,11.9
				c0.4,0.6,1.1,1,1.9,1.2c0.2,0,0.3,0,0.5,0c0.6,0,1.2-0.2,1.6-0.5C51.9,107.3,52.3,105.5,51.3,104.2z"/>
			<g id="XMLID_285_">
				<path id="XMLID_287_" class="st8" d="M42.3,91.6c-1.3-0.9-3.1-0.6-4,0.7l-8.4,11.9c-0.9,1.3-0.6,3.1,0.7,4
					c0.5,0.3,1.1,0.5,1.6,0.5c0.2,0,0.3,0,0.5,0c0.8-0.1,1.4-0.6,1.9-1.2L43,95.6C43.9,94.3,43.6,92.5,42.3,91.6"/>
				<path id="XMLID_286_" class="st9" d="M40.6,91.1c-0.9,0-1.8,0.4-2.3,1.2l-0.2,0.3c-0.5,0.9-0.5,2.1,0.2,3l2.4,3.4l2.4-3.4
					c0.7-0.9,0.7-2.1,0.2-3L43,92.3C42.4,91.5,41.5,91.1,40.6,91.1"/>
			</g>
		</g>
	</g>
	<g id="XMLID_248_">
		<g id="XMLID_249_">
			<g id="XMLID_1_">
				<path id="XMLID_2_" class="st10" d="M137.3,106.9h4v-13h4.2v-3h-4.2v-1.7c0-0.7,0.2-1.2,0.6-1.6c0.4-0.4,0.9-0.5,1.5-0.5
					c0.5,0,1.2,0.2,2.1,0.5l0.7-3.3c-1-0.5-2-0.7-3-0.7c-1.1,0-2,0.2-2.9,0.7c-0.9,0.4-1.6,1.1-2.2,1.9c-0.5,0.9-0.8,1.9-0.8,3.1
					v1.6h-2.2v3h2.2V106.9z"/>
				<path id="XMLID_34_" class="st10" d="M147.2,103c0.7,1.3,1.8,2.3,3.1,3c1.3,0.7,2.9,1.1,4.6,1.1c1.7,0,3.2-0.4,4.6-1.1
					c1.3-0.7,2.3-1.7,3.1-3c0.7-1.3,1.1-2.8,1.1-4.4c0-1.7-0.4-3.1-1.1-4.4c-0.7-1.3-1.8-2.3-3.1-3c-1.3-0.7-2.8-1.1-4.6-1.1
					c-1.7,0-3.3,0.4-4.6,1.1c-1.3,0.7-2.4,1.7-3.1,3c-0.7,1.3-1.1,2.7-1.1,4.4C146.1,100.2,146.5,101.7,147.2,103z M151.5,95
					c0.9-0.9,2-1.4,3.4-1.4c1.4,0,2.5,0.5,3.4,1.4c0.9,0.9,1.3,2.1,1.3,3.6c0,1.5-0.4,2.7-1.3,3.6c-0.9,0.9-2,1.4-3.4,1.4
					c-1.4,0-2.5-0.5-3.4-1.4c-0.9-0.9-1.3-2.1-1.3-3.6C150.2,97.1,150.6,95.9,151.5,95z"/>
				<polygon id="XMLID_35_" class="st10" points="180.7,102.3 183.3,99.6 187.8,106.9 192.6,106.9 186.1,96.7 192.2,90.3 
					187.6,90.3 180.7,97.2 180.7,83.8 176.7,83.8 176.7,106.9 180.7,106.9 				"/>
				<path id="XMLID_36_" class="st10" d="M201.9,103.5c-0.4,0.3-1,0.4-1.8,0.4c-0.9,0-1.9-0.2-3-0.5c-1-0.4-1.9-0.9-2.7-1.5
					l-1.4,2.8c0.8,0.7,1.9,1.3,3.1,1.7c1.2,0.4,2.5,0.6,3.8,0.6c1.9,0,3.5-0.4,4.7-1.3c1.2-0.9,1.9-2.1,1.9-3.7c0-1.1-0.3-2-0.8-2.7
					c-0.5-0.7-1.2-1.2-1.9-1.5c-0.7-0.3-1.7-0.7-2.9-1c-1.1-0.3-1.9-0.6-2.4-0.9c-0.5-0.3-0.8-0.7-0.8-1.2c0-0.5,0.2-0.9,0.6-1.1
					c0.4-0.2,0.9-0.4,1.6-0.4c0.7,0,1.5,0.1,2.4,0.4c0.9,0.3,1.7,0.6,2.5,1.1l1.5-2.9c-0.8-0.6-1.8-1-2.8-1.3
					c-1.1-0.3-2.2-0.5-3.2-0.5c-1.8,0-3.3,0.4-4.5,1.3c-1.2,0.9-1.8,2.1-1.8,3.7c0,1.1,0.3,1.9,0.8,2.6c0.5,0.7,1.1,1.1,1.8,1.5
					c0.7,0.3,1.6,0.6,2.7,1c1.2,0.4,2,0.7,2.5,1c0.5,0.3,0.8,0.7,0.8,1.3C202.6,102.9,202.4,103.3,201.9,103.5z"/>
				<polygon id="XMLID_37_" class="st10" points="156.7,125.9 152.7,113.3 148.6,113.3 144.7,125.9 140.6,113.3 136.5,113.4 
					142.5,130 146.7,130 150.6,118.2 154.6,130 158.7,130 164.8,113.3 160.7,113.3 				"/>
				<path id="XMLID_40_" class="st10" d="M183.5,119.6c0-2-0.5-3.5-1.6-4.7c-1.1-1.2-2.6-1.7-4.5-1.7c-2.9,0-4.9,1.2-6,3.3V83.8h-4
					V130h4v-8.2c0-1.4,0.4-2.5,1.2-3.4c0.8-0.9,1.9-1.3,3.2-1.4c1.1,0,2,0.3,2.7,1c0.7,0.7,1,1.6,1,2.8v9.2h4.1v9.2
					c-0.6-0.9-1.4-1.6-2.4-2.1c-1-0.5-2.1-0.7-3.3-0.7c-1.5,0-2.9,0.4-4.1,1.1c-1.2,0.7-2.1,1.7-2.8,3s-1,2.7-1,4.4
					c0,1.7,0.3,3.2,1,4.5c0.7,1.3,1.6,2.3,2.8,3c1.2,0.7,2.6,1.1,4.2,1.1c1.2,0,2.3-0.2,3.3-0.7c0.9-0.5,1.7-1.2,2.3-2.1v2.7h4V130
					h-4V119.6z M182.2,148.4c-0.9,0.9-2,1.4-3.4,1.4c-1.4,0-2.5-0.5-3.4-1.4c-0.9-0.9-1.3-2.2-1.3-3.7c0-1.5,0.5-2.7,1.3-3.7
					c0.9-0.9,2-1.4,3.4-1.4c1.4,0,2.5,0.5,3.4,1.4c0.9,0.9,1.3,2.2,1.3,3.7C183.5,146.3,183.1,147.5,182.2,148.4z"/>
				<path id="XMLID_43_" class="st10" d="M199.9,129.1c1.3-0.7,2.3-1.7,3.1-3c0.7-1.3,1.1-2.8,1.1-4.4c0-1.7-0.4-3.1-1.1-4.4
					c-0.7-1.3-1.8-2.3-3.1-3c-1.3-0.7-2.8-1.1-4.6-1.1c-1.7,0-3.3,0.4-4.6,1.1c-1.3,0.7-2.4,1.7-3.1,3c-0.7,1.3-1.1,2.7-1.1,4.4
					c0,1.7,0.4,3.2,1.1,4.4c0.7,1.3,1.8,2.3,3.1,3c1.3,0.7,2.9,1.1,4.6,1.1C197,130.1,198.6,129.8,199.9,129.1z M190.6,121.7
					c0-1.5,0.4-2.7,1.3-3.6c0.9-0.9,2-1.4,3.4-1.4c1.4,0,2.5,0.5,3.4,1.4c0.9,0.9,1.3,2.1,1.3,3.6c0,1.5-0.4,2.7-1.3,3.6
					c-0.9,0.9-2,1.4-3.4,1.4c-1.4,0-2.5-0.5-3.4-1.4C191,124.4,190.6,123.2,190.6,121.7z"/>
				<path id="XMLID_44_" class="st10" d="M142.1,149.7c-1.3,0-2.4-0.5-3.3-1.4c-0.8-0.9-1.3-2.1-1.3-3.6c0-1.5,0.4-2.6,1.3-3.5
					c0.8-0.9,1.9-1.4,3.3-1.4c1.8,0,3.2,0.6,4.4,1.8l2.5-2.3c-0.7-1-1.7-1.7-2.9-2.3c-1.2-0.5-2.5-0.8-4.1-0.8
					c-1.7,0-3.1,0.4-4.4,1.1c-1.3,0.7-2.3,1.7-3,3c-0.7,1.3-1.1,2.8-1.1,4.4c0,1.7,0.4,3.1,1.1,4.4c0.7,1.3,1.7,2.3,3,3
					c1.3,0.7,2.7,1.1,4.4,1.1c1.6,0,3-0.3,4.3-0.9c1.2-0.6,2.2-1.4,3-2.5l-2.5-2.1C145.6,149.1,144.1,149.7,142.1,149.7z"/>
				<path id="XMLID_47_" class="st10" d="M163.8,137.3c-1.3-0.7-2.8-1.1-4.6-1.1c-1.7,0-3.3,0.4-4.6,1.1c-1.3,0.7-2.4,1.7-3.1,3
					c-0.7,1.3-1.1,2.7-1.1,4.4c0,1.7,0.4,3.2,1.1,4.4c0.7,1.3,1.8,2.3,3.1,3c1.3,0.7,2.9,1.1,4.6,1.1c1.7,0,3.2-0.4,4.6-1.1
					c1.3-0.7,2.3-1.7,3.1-3c0.7-1.3,1.1-2.8,1.1-4.4c0-1.7-0.4-3.1-1.1-4.4C166.1,139,165.1,138,163.8,137.3z M162.6,148.4
					c-0.9,0.9-2,1.4-3.4,1.4c-1.4,0-2.5-0.5-3.4-1.4c-0.9-0.9-1.3-2.1-1.3-3.6c0-1.5,0.4-2.7,1.3-3.6c0.9-0.9,2-1.4,3.4-1.4
					c1.4,0,2.5,0.5,3.4,1.4c0.9,0.9,1.3,2.1,1.3,3.6C163.9,146.3,163.5,147.5,162.6,148.4z"/>
				<path id="XMLID_50_" class="st10" d="M207.7,144.9c0-2.7-0.7-4.9-2-6.4c-1.3-1.5-3.3-2.3-6-2.3c-1.6,0-3.1,0.4-4.4,1.1
					c-1.3,0.7-2.3,1.7-3,3c-0.7,1.3-1.1,2.8-1.1,4.4c0,1.7,0.4,3.1,1.1,4.4c0.7,1.3,1.7,2.3,3,3c1.3,0.7,2.8,1.1,4.5,1.1
					c1.5,0,2.8-0.2,4-0.7c1.2-0.5,2.2-1.2,3-2.1l-2.2-2.3c-0.6,0.6-1.3,1.1-2,1.4c-0.8,0.3-1.6,0.5-2.4,0.5c-1.2,0-2.3-0.3-3.1-1
					c-0.8-0.7-1.4-1.6-1.7-2.8h12.3C207.6,145.9,207.7,145.5,207.7,144.9z M195.3,143.4c0.2-1.2,0.7-2.2,1.5-2.9
					c0.8-0.7,1.8-1.1,3-1.1c1.3,0,2.3,0.4,3,1.1c0.8,0.7,1.2,1.7,1.2,2.9H195.3z"/>
			</g>
			<path id="XMLID_250_" class="st5" d="M215.9,153.3L215.9,153.3c-1.6,0-3-1.3-3-3l0,0c0-1.6,1.3-3,3-3l0,0c1.6,0,3,1.3,3,3l0,0
				C218.9,152,217.6,153.3,215.9,153.3z"/>
		</g>
	</g>
</g>
</svg>
