<?xml version="1.0" encoding="utf-8"?>
<!-- Generator: Adobe Illustrator 19.0.0, SVG Export Plug-In . SVG Version: 6.00 Build 0)  -->
<svg version="1.1" id="Layer_1" xmlns="http://www.w3.org/2000/svg" xmlns:xlink="http://www.w3.org/1999/xlink" x="0px" y="0px"
	 viewBox="0 0 226.8 226.8" style="enable-background:new 0 0 226.8 226.8;" xml:space="preserve">
<style type="text/css">
	.st0{fill:#F69220;}
	.st1{fill:#EC2024;}
	.st2{fill:#E11F26;}
	.st3{fill:#F05B26;}
	.st4{fill:#0D72B9;}
	.st5{fill:#29A9E1;}
	.st6{fill:#932B8D;}
	.st7{fill:#3BB44A;}
	.st8{fill:#019147;}
	.st9{fill:#108948;}
	.st10{fill:#D0D2D3;}
</style>
<g id="XMLID_169_">
	<g id="XMLID_233_">
		<g id="XMLID_243_">
			<path id="XMLID_247_" class="st0" d="M148.6,55.8c-0.2-1-0.7-1.8-1.5-2.4c-1.7-1.2-4-0.8-5.1,0.9l-10.7,15.2
				c-1.2,1.7-0.8,4,0.9,5.1c0.6,0.4,1.3,0.7,2.1,0.7c0.2,0,0.4,0,0.7-0.1c1-0.2,1.8-0.7,2.4-1.5L148,58.5
				C148.6,57.7,148.8,56.7,148.6,55.8z"/>
			<g id="XMLID_244_">
				<path id="XMLID_246_" class="st1" d="M158.7,69.5L148,54.3c-0.6-0.8-1.4-1.3-2.4-1.5c-1-0.2-1.9,0-2.7,0.6
					c-1.7,1.2-2.1,3.5-0.9,5.1l10.7,15.2c0.7,1,1.9,1.6,3,1.6c0.7,0,1.5-0.2,2.1-0.7C159.4,73.5,159.8,71.2,158.7,69.5"/>
				<path id="XMLID_245_" class="st2" d="M145,52.7C145,52.7,144.9,52.7,145,52.7c-1.2,0-2.3,0.6-3,1.6l-0.2,0.3
					c-0.7,1.2-0.6,2.7,0.2,3.9l3,4.3l3-4.3c0.6-0.8,0.8-1.8,0.6-2.7c-0.1-0.4-0.2-0.8-0.4-1.1l-0.2-0.3c-0.6-0.8-1.4-1.3-2.4-1.5
					C145.4,52.8,145.2,52.7,145,52.7"/>
			</g>
		</g>
		<path id="XMLID_242_" class="st3" d="M122.7,80.9h-18.6c-2,0-3.7,1.6-3.7,3.7s1.6,3.7,3.7,3.7h18.6c2,0,3.7-1.6,3.7-3.7
			S124.7,80.9,122.7,80.9z"/>
		<path id="XMLID_241_" class="st4" d="M52.1,64.8V52.4c0-1.1,0.2-1.6,0.4-1.8c0.2-0.3,0.8-0.4,1.7-0.4h1.8c1.8,0,3.3-1.5,3.3-3.3
			s-1.5-3.3-3.3-3.3h-1.8c-1.3,0-2.5,0.2-3.5,0.7c-1.1,0.4-2,1.1-2.8,1.9c-0.8,0.8-1.4,1.7-1.8,2.8c-0.4,1.1-0.6,2.2-0.6,3.5v12.4
			c0,1.4-0.3,2.2-1,2.6c-0.4,0.2-0.9,0.3-1.5,0.5c-1.7,0.3-2.9,1.8-2.9,3.5c0,1.7,1.2,3.2,2.9,3.5c0.6,0.1,1.1,0.3,1.5,0.5
			c0.7,0.4,1,1.2,1,2.6v12.4c0,1.3,0.2,2.5,0.6,3.5c0.4,1.1,1,2,1.8,2.8c0.8,0.8,1.7,1.4,2.8,1.9c1.1,0.4,2.3,0.6,3.5,0.6h1.8
			c1.8,0,3.3-1.5,3.3-3.3v0c0-1.8-1.5-3.3-3.3-3.3h-1.8c-0.8,0-1.4-0.1-1.7-0.4c-0.2-0.2-0.4-0.7-0.4-1.8V77.9c0-1-0.2-1.9-0.5-2.7
			c-0.3-0.8-0.8-1.5-1.3-2.2c-0.5-0.6-1.2-1.1-1.9-1.5c-0.1-0.1-0.2-0.1-0.3-0.2c0.8-0.4,1.5-0.9,2.2-1.6
			C51.4,68.4,52.1,66.8,52.1,64.8z"/>
		<path id="XMLID_240_" class="st5" d="M183.9,67.8c-0.6-0.1-1.1-0.3-1.5-0.5c-0.7-0.3-1-1.2-1-2.6V52.4c0-1.3-0.2-2.5-0.6-3.5
			c-0.4-1.1-1-2-1.8-2.8c-0.8-0.8-1.7-1.4-2.8-1.9c-1.1-0.4-2.3-0.7-3.5-0.7h-1.8c-1.8,0-3.3,1.5-3.3,3.3s1.5,3.3,3.3,3.3h1.8
			c0.8,0,1.4,0.2,1.7,0.4c0.2,0.2,0.4,0.7,0.4,1.8v12.4c0,2,0.6,3.6,1.9,4.9c0.7,0.7,1.4,1.2,2.2,1.6c-0.1,0.1-0.2,0.1-0.3,0.2
			c-0.7,0.4-1.4,0.9-1.9,1.5c-0.5,0.6-1,1.3-1.3,2.2c-0.4,0.8-0.5,1.7-0.5,2.7v12.4c0,1.1-0.2,1.5-0.4,1.8c-0.2,0.3-0.8,0.4-1.7,0.4
			h-1.8c-1.8,0-3.3,1.5-3.3,3.3v0c0,1.8,1.5,3.3,3.3,3.3h1.8c1.3,0,2.4-0.2,3.5-0.6c1.1-0.4,2-1.1,2.8-1.9c0.8-0.8,1.4-1.7,1.8-2.8
			c0.4-1.1,0.6-2.2,0.6-3.5V77.9c0-1.4,0.3-2.2,1-2.6c0.4-0.2,0.9-0.4,1.5-0.5c1.7-0.3,2.9-1.8,2.9-3.5
			C186.8,69.6,185.6,68.1,183.9,67.8z"/>
		<path id="XMLID_239_" class="st6" d="M128.7,32c-0.6-0.8-1.5-1.3-2.5-1.4c-1.8-0.1-3.4,1.1-3.7,2.9c-0.2,1.2-0.5,2.2-0.8,2.8
			c-0.5,1.2-1.2,1.3-1.7,1.3c-0.1,0-0.6,0-1.1-0.8c-0.4-0.8-0.9-1.6-1.5-2.6c-0.6-1-1.4-1.9-2.3-2.7c-1-0.9-2.4-1.3-4.1-1.3
			c-1.6,0-3,0.3-4.1,1c-1.2,0.7-2.2,1.6-3,2.8c-0.8,1.2-1.4,2.5-1.9,4.1c-0.1,0.5-0.3,1.1-0.4,1.6c-0.2,1,0,2,0.6,2.8
			c0.6,0.8,1.5,1.3,2.5,1.4c1.8,0.1,3.4-1.1,3.7-2.9c0.2-1.2,0.5-2.2,0.8-2.8c0.5-1.1,1.2-1.3,1.7-1.3c0.3,0,0.7,0.1,1.1,0.8
			c0.4,0.8,0.9,1.6,1.5,2.6c0.6,1,1.4,1.9,2.3,2.7c1,0.9,2.4,1.3,4.1,1.3c1.6,0,3-0.4,4.1-1c1.2-0.7,2.2-1.6,3-2.8
			c0.8-1.1,1.4-2.5,1.9-4.1c0.1-0.5,0.3-1.1,0.4-1.7C129.6,33.8,129.3,32.8,128.7,32z"/>
		<g id="XMLID_234_">
			<path id="XMLID_238_" class="st7" d="M95.4,69.5L84.8,54.3c-1.2-1.7-3.5-2.1-5.1-0.9c-1.7,1.2-2.1,3.5-0.9,5.1l10.7,15.2
				c0.6,0.8,1.4,1.3,2.4,1.5c0.2,0,0.4,0.1,0.7,0.1c0.7,0,1.5-0.2,2.1-0.7C96.2,73.5,96.6,71.2,95.4,69.5z"/>
			<g id="XMLID_235_">
				<path id="XMLID_237_" class="st8" d="M83.9,53.4c-1.7-1.2-4-0.8-5.1,0.9L68.1,69.5c-1.2,1.7-0.8,4,0.9,5.1
					c0.6,0.4,1.3,0.7,2.1,0.7c0.2,0,0.4,0,0.7-0.1c1-0.2,1.8-0.7,2.4-1.5l10.7-15.2C85.9,56.9,85.5,54.6,83.9,53.4"/>
				<path id="XMLID_236_" class="st9" d="M81.8,52.7c-1.2,0-2.3,0.6-3,1.6l-0.2,0.3c-0.7,1.2-0.6,2.7,0.2,3.9l3,4.3l3-4.3
					c0.8-1.2,0.9-2.7,0.2-3.9l-0.2-0.3C84,53.3,82.9,52.7,81.8,52.7"/>
			</g>
		</g>
	</g>
	<g id="XMLID_170_">
		<g id="XMLID_1_">
			<path id="XMLID_2_" class="st10" d="M71,137.3h5.2v-16.6h5.3v-3.8h-5.3v-2.2c0-0.9,0.3-1.6,0.8-2c0.5-0.4,1.2-0.7,2-0.7
				c0.7,0,1.6,0.2,2.6,0.6l0.9-4.2c-1.3-0.6-2.6-0.9-3.9-0.9c-1.3,0-2.6,0.3-3.8,0.8c-1.2,0.6-2.1,1.4-2.8,2.5c-0.7,1.1-1,2.4-1,4v2
				h-2.8v3.8H71V137.3z"/>
			<path id="XMLID_34_" class="st10" d="M83.6,132.3c0.9,1.6,2.3,2.9,3.9,3.8c1.7,0.9,3.7,1.3,5.9,1.3c2.2,0,4.1-0.4,5.8-1.3
				c1.7-0.9,3-2.2,3.9-3.8c0.9-1.6,1.4-3.5,1.4-5.7c0-2.1-0.5-4-1.4-5.6c-0.9-1.6-2.2-2.9-3.9-3.8c-1.7-0.9-3.6-1.3-5.8-1.3
				c-2.2,0-4.2,0.5-5.9,1.3c-1.7,0.9-3,2.2-3.9,3.8c-0.9,1.6-1.4,3.5-1.4,5.6C82.2,128.8,82.7,130.7,83.6,132.3z M89.1,122.1
				c1.1-1.2,2.6-1.8,4.4-1.8c1.7,0,3.2,0.6,4.3,1.8c1.1,1.2,1.7,2.7,1.7,4.6s-0.6,3.5-1.7,4.6c-1.1,1.2-2.5,1.8-4.3,1.8
				c-1.8,0-3.3-0.6-4.4-1.8c-1.1-1.2-1.7-2.7-1.7-4.6S88,123.3,89.1,122.1z"/>
			<polygon id="XMLID_35_" class="st10" points="126.4,131.4 129.7,128 135.4,137.3 141.6,137.3 133.3,124.3 141.1,116.1 
				135.2,116.1 126.4,124.9 126.4,107.8 121.3,107.8 121.3,137.3 126.4,137.3 			"/>
			<path id="XMLID_36_" class="st10" d="M153.5,133c-0.6,0.3-1.3,0.5-2.3,0.5c-1.2,0-2.4-0.2-3.8-0.7c-1.3-0.5-2.5-1.1-3.4-1.9
				l-1.8,3.6c1.1,1,2.4,1.7,4,2.2c1.6,0.5,3.2,0.8,4.8,0.8c2.4,0,4.4-0.6,6-1.7c1.6-1.1,2.4-2.7,2.4-4.8c0-1.4-0.4-2.5-1.1-3.4
				c-0.7-0.9-1.5-1.5-2.5-1.9c-1-0.4-2.2-0.9-3.7-1.3c-1.4-0.4-2.4-0.8-3.1-1.1c-0.6-0.4-1-0.9-1-1.5c0-0.6,0.3-1.1,0.8-1.4
				c0.5-0.3,1.2-0.5,2.1-0.5c0.9,0,1.9,0.2,3,0.5c1.1,0.3,2.2,0.8,3.2,1.4l1.9-3.7c-1.1-0.7-2.3-1.3-3.6-1.7
				c-1.4-0.4-2.7-0.6-4.1-0.6c-2.3,0-4.2,0.5-5.7,1.6c-1.5,1.1-2.3,2.7-2.3,4.8c0,1.3,0.3,2.4,1,3.3c0.7,0.8,1.4,1.5,2.3,1.9
				c0.9,0.4,2.1,0.8,3.5,1.3c1.5,0.5,2.6,0.9,3.2,1.2c0.7,0.4,1,0.9,1,1.7C154.3,132.2,154.1,132.7,153.5,133z"/>
			<polygon id="XMLID_37_" class="st10" points="95.8,161.5 90.7,145.5 85.5,145.5 80.4,161.5 75.2,145.5 69.9,145.5 77.7,166.7 
				83,166.7 88,151.8 93.1,166.7 98.4,166.7 106.1,145.5 100.9,145.5 			"/>
			<path id="XMLID_40_" class="st10" d="M130,153.5c0-2.5-0.7-4.5-2.1-6c-1.4-1.5-3.3-2.2-5.8-2.2c-3.7,0.1-6.2,1.5-7.7,4.2v-41.7
				h-5.2v58.9h5.2v-10.4c0-1.8,0.5-3.2,1.5-4.4c1-1.1,2.4-1.7,4.1-1.7c1.5,0,2.6,0.4,3.5,1.3c0.8,0.9,1.3,2,1.3,3.5v11.7h5.2v11.7
				c-0.8-1.2-1.8-2.1-3-2.7c-1.2-0.6-2.6-1-4.2-1c-2,0-3.7,0.5-5.2,1.3c-1.5,0.9-2.7,2.2-3.5,3.8s-1.3,3.5-1.3,5.6
				c0,2.1,0.4,4,1.3,5.7c0.8,1.7,2,2.9,3.6,3.9c1.5,0.9,3.3,1.4,5.3,1.4c1.6,0,3-0.3,4.2-0.9c1.2-0.6,2.2-1.5,3-2.7v3.4h5.2v-29.5
				H130V153.5z M128.3,190.3c-1.1,1.2-2.6,1.8-4.3,1.8c-1.8,0-3.2-0.6-4.3-1.8c-1.1-1.2-1.7-2.8-1.7-4.7c0-1.9,0.6-3.5,1.7-4.7
				s2.6-1.8,4.3-1.8c1.8,0,3.2,0.6,4.3,1.8c1.1,1.2,1.7,2.8,1.7,4.7S129.4,189.1,128.3,190.3z"/>
			<path id="XMLID_43_" class="st10" d="M150.9,165.6c1.7-0.9,3-2.2,3.9-3.8c0.9-1.6,1.4-3.5,1.4-5.7c0-2.1-0.5-4-1.4-5.6
				c-0.9-1.6-2.2-2.9-3.9-3.8c-1.7-0.9-3.6-1.3-5.8-1.3c-2.2,0-4.2,0.5-5.9,1.3c-1.7,0.9-3,2.2-3.9,3.8c-0.9,1.6-1.4,3.5-1.4,5.6
				c0,2.1,0.5,4,1.4,5.7c0.9,1.6,2.3,2.9,3.9,3.8c1.7,0.9,3.7,1.3,5.9,1.3C147.2,166.9,149.2,166.5,150.9,165.6z M139,156.2
				c0-1.9,0.6-3.5,1.7-4.6c1.1-1.2,2.6-1.8,4.4-1.8c1.7,0,3.2,0.6,4.3,1.8c1.1,1.2,1.7,2.7,1.7,4.6s-0.6,3.5-1.7,4.6
				c-1.1,1.2-2.5,1.8-4.3,1.8c-1.8,0-3.3-0.6-4.4-1.8C139.6,159.6,139,158.1,139,156.2z"/>
			<path id="XMLID_44_" class="st10" d="M77.1,191.9c-1.7,0-3.1-0.6-4.2-1.7c-1.1-1.2-1.6-2.7-1.6-4.6c0-1.9,0.5-3.4,1.6-4.5
				c1.1-1.2,2.5-1.7,4.2-1.7c2.3,0,4.1,0.8,5.6,2.3l3.1-3c-1-1.2-2.2-2.2-3.7-2.9c-1.5-0.7-3.2-1-5.2-1c-2.1,0-4,0.5-5.6,1.3
				c-1.6,0.9-2.9,2.2-3.8,3.8c-0.9,1.6-1.4,3.5-1.4,5.7c0,2.1,0.4,4,1.3,5.6c0.9,1.6,2.2,2.9,3.8,3.8c1.6,0.9,3.5,1.3,5.6,1.3
				c2.1,0,3.9-0.4,5.4-1.1c1.6-0.7,2.8-1.8,3.8-3.2l-3.2-2.7C81.6,191.1,79.7,191.9,77.1,191.9z"/>
			<path id="XMLID_47_" class="st10" d="M104.8,176.1c-1.7-0.9-3.6-1.3-5.8-1.3c-2.2,0-4.2,0.5-5.9,1.3c-1.7,0.9-3,2.2-3.9,3.8
				c-0.9,1.6-1.4,3.5-1.4,5.6c0,2.1,0.5,4,1.4,5.7c0.9,1.6,2.3,2.9,3.9,3.8c1.7,0.9,3.7,1.3,5.9,1.3c2.2,0,4.1-0.4,5.8-1.3
				c1.7-0.9,3-2.2,3.9-3.8c0.9-1.6,1.4-3.5,1.4-5.7c0-2.1-0.5-4-1.4-5.6C107.8,178.3,106.5,177,104.8,176.1z M103.3,190.3
				c-1.1,1.2-2.5,1.8-4.3,1.8c-1.8,0-3.3-0.6-4.4-1.8c-1.1-1.2-1.7-2.7-1.7-4.6s0.6-3.5,1.7-4.6c1.1-1.2,2.6-1.8,4.4-1.8
				c1.7,0,3.2,0.6,4.3,1.8c1.1,1.2,1.7,2.7,1.7,4.6S104.4,189.1,103.3,190.3z"/>
			<path id="XMLID_50_" class="st10" d="M160.8,185.8c0-3.5-0.9-6.2-2.6-8.1c-1.7-1.9-4.3-2.9-7.6-2.9c-2.1,0-4,0.5-5.6,1.4
				c-1.6,0.9-2.9,2.2-3.8,3.8c-0.9,1.6-1.4,3.5-1.4,5.6c0,2.1,0.4,4,1.3,5.6c0.9,1.6,2.2,2.9,3.8,3.8c1.7,0.9,3.6,1.3,5.7,1.3
				c1.9,0,3.5-0.3,5.1-1c1.5-0.6,2.8-1.5,3.9-2.7l-2.8-2.9c-0.7,0.8-1.6,1.4-2.6,1.8c-1,0.4-2,0.6-3.1,0.6c-1.6,0-2.9-0.4-3.9-1.3
				c-1.1-0.9-1.8-2-2.1-3.6h15.7C160.8,187,160.8,186.5,160.8,185.8z M145,183.9c0.2-1.6,0.9-2.8,1.9-3.8c1-0.9,2.3-1.4,3.8-1.4
				c1.6,0,2.9,0.5,3.9,1.4s1.5,2.2,1.5,3.7H145z"/>
		</g>
		<path id="XMLID_171_" class="st5" d="M171.3,196.5L171.3,196.5c-2.1,0-3.8-1.7-3.8-3.8v0c0-2.1,1.7-3.8,3.8-3.8l0,0
			c2.1,0,3.8,1.7,3.8,3.8v0C175.2,194.8,173.4,196.5,171.3,196.5z"/>
	</g>
</g>
</svg>
