<?xml version="1.0" encoding="utf-8"?>
<!-- Generator: Adobe Illustrator 19.0.0, SVG Export Plug-In . SVG Version: 6.00 Build 0)  -->
<svg version="1.1" id="Layer_1" xmlns="http://www.w3.org/2000/svg" xmlns:xlink="http://www.w3.org/1999/xlink" x="0px" y="0px"
	 viewBox="0 0 226.8 226.8" style="enable-background:new 0 0 226.8 226.8;" xml:space="preserve">
<style type="text/css">
	.st0{fill:#F69220;}
	.st1{fill:#EC2024;}
	.st2{fill:#E11F26;}
	.st3{fill:#F05B26;}
	.st4{fill:#0D72B9;}
	.st5{fill:#29A9E1;}
	.st6{fill:#92298D;}
	.st7{fill:#3BB44A;}
	.st8{fill:#019147;}
	.st9{fill:#108948;}
	.st10{fill:#676767;}
</style>
<g id="XMLID_4_">
	<g id="XMLID_18_">
		<g id="XMLID_302_">
			<path id="XMLID_306_" class="st0" d="M58.5,109.2c-0.1-0.5-0.3-0.9-0.7-1.1c-0.8-0.5-1.9-0.4-2.4,0.4l-5,7.1
				c-0.5,0.8-0.4,1.9,0.4,2.4c0.3,0.2,0.6,0.3,1,0.3c0.1,0,0.2,0,0.3,0c0.5-0.1,0.9-0.3,1.1-0.7l5-7.1
				C58.5,110.1,58.6,109.7,58.5,109.2z"/>
			<g id="XMLID_303_">
				<path id="XMLID_305_" class="st1" d="M63.2,115.7l-5-7.1c-0.3-0.4-0.7-0.6-1.1-0.7c-0.5-0.1-0.9,0-1.3,0.3
					c-0.8,0.5-1,1.6-0.4,2.4l5,7.1c0.3,0.5,0.9,0.7,1.4,0.7c0.3,0,0.7-0.1,1-0.3C63.6,117.5,63.7,116.4,63.2,115.7"/>
				<path id="XMLID_304_" class="st2" d="M56.8,107.8C56.8,107.8,56.8,107.8,56.8,107.8c-0.6,0-1.1,0.3-1.4,0.7l-0.1,0.2
					c-0.3,0.6-0.3,1.3,0.1,1.8l1.4,2l1.4-2c0.3-0.4,0.4-0.8,0.3-1.3c0-0.2-0.1-0.4-0.2-0.5l-0.1-0.2c-0.3-0.4-0.7-0.6-1.1-0.7
					C57,107.8,56.9,107.8,56.8,107.8"/>
			</g>
		</g>
		<path id="XMLID_301_" class="st3" d="M46.3,121h-8.7c-1,0-1.7,0.8-1.7,1.7c0,1,0.8,1.7,1.7,1.7h8.7c1,0,1.7-0.8,1.7-1.7
			C48,121.7,47.3,121,46.3,121z"/>
		<path id="XMLID_46_" class="st4" d="M13.2,113.4v-5.8c0-0.5,0.1-0.7,0.2-0.8c0.1-0.1,0.4-0.2,0.8-0.2H15c0.9,0,1.6-0.7,1.6-1.6
			c0-0.9-0.7-1.6-1.6-1.6h-0.8c-0.6,0-1.1,0.1-1.7,0.3c-0.5,0.2-0.9,0.5-1.3,0.9c-0.4,0.4-0.6,0.8-0.8,1.3c-0.2,0.5-0.3,1.1-0.3,1.7
			v5.8c0,0.6-0.2,1.1-0.5,1.2c-0.2,0.1-0.4,0.2-0.7,0.2c-0.8,0.1-1.4,0.8-1.4,1.6c0,0.8,0.6,1.5,1.4,1.6c0.3,0.1,0.5,0.1,0.7,0.2
			c0.3,0.2,0.5,0.6,0.5,1.2v5.8c0,0.6,0.1,1.2,0.3,1.7c0.2,0.5,0.5,0.9,0.8,1.3c0.4,0.4,0.8,0.7,1.3,0.9c0.5,0.2,1.1,0.3,1.6,0.3H15
			c0.9,0,1.6-0.7,1.6-1.6v0c0-0.9-0.7-1.6-1.6-1.6h-0.8c-0.4,0-0.7-0.1-0.8-0.2c-0.1-0.1-0.2-0.3-0.2-0.8v-5.8
			c0-0.4-0.1-0.9-0.2-1.3c-0.2-0.4-0.4-0.7-0.6-1c-0.3-0.3-0.6-0.5-0.9-0.7c-0.1,0-0.1-0.1-0.2-0.1c0.4-0.2,0.7-0.4,1-0.8
			C12.9,115.1,13.2,114.4,13.2,113.4z"/>
		<path id="XMLID_45_" class="st5" d="M75,114.9c-0.3,0-0.5-0.1-0.7-0.2c-0.3-0.2-0.5-0.6-0.5-1.2v-5.8c0-0.6-0.1-1.2-0.3-1.7
			c-0.2-0.5-0.5-0.9-0.8-1.3c-0.4-0.4-0.8-0.7-1.3-0.9c-0.5-0.2-1.1-0.3-1.7-0.3h-0.8c-0.9,0-1.6,0.7-1.6,1.6c0,0.9,0.7,1.6,1.6,1.6
			h0.8c0.4,0,0.7,0.1,0.8,0.2c0.1,0.1,0.2,0.3,0.2,0.8v5.8c0,0.9,0.3,1.7,0.9,2.3c0.3,0.3,0.7,0.6,1,0.8c-0.1,0-0.1,0-0.2,0.1
			c-0.3,0.2-0.6,0.4-0.9,0.7c-0.3,0.3-0.5,0.6-0.6,1c-0.2,0.4-0.2,0.8-0.2,1.3v5.8c0,0.5-0.1,0.7-0.2,0.8c-0.1,0.1-0.4,0.2-0.8,0.2
			h-0.8c-0.9,0-1.6,0.7-1.6,1.6v0c0,0.9,0.7,1.6,1.6,1.6h0.8c0.6,0,1.1-0.1,1.6-0.3c0.5-0.2,0.9-0.5,1.3-0.9
			c0.4-0.4,0.6-0.8,0.8-1.3c0.2-0.5,0.3-1.1,0.3-1.7v-5.8c0-0.6,0.2-1,0.5-1.2c0.2-0.1,0.4-0.2,0.7-0.2c0.8-0.1,1.4-0.8,1.4-1.6
			C76.4,115.7,75.8,115,75,114.9z"/>
		<path id="XMLID_44_" class="st6" d="M49.1,98c-0.3-0.4-0.7-0.6-1.2-0.6c-0.8-0.1-1.6,0.5-1.7,1.4c-0.1,0.6-0.2,1-0.4,1.3
			c-0.2,0.5-0.6,0.6-0.8,0.6c-0.1,0-0.3,0-0.5-0.4c-0.2-0.4-0.4-0.8-0.7-1.2c-0.3-0.5-0.6-0.9-1.1-1.3c-0.5-0.4-1.1-0.6-1.9-0.6
			c-0.7,0-1.4,0.2-1.9,0.5c-0.6,0.3-1,0.8-1.4,1.3c-0.4,0.5-0.7,1.2-0.9,1.9c-0.1,0.2-0.1,0.5-0.2,0.8c-0.1,0.5,0,1,0.3,1.3
			c0.3,0.4,0.7,0.6,1.2,0.6c0.8,0.1,1.6-0.5,1.8-1.4c0.1-0.6,0.2-1,0.4-1.3c0.2-0.5,0.6-0.6,0.8-0.6c0.1,0,0.3,0,0.5,0.4
			c0.2,0.4,0.4,0.8,0.7,1.2c0.3,0.5,0.7,0.9,1.1,1.3c0.5,0.4,1.1,0.6,1.9,0.6c0.7,0,1.4-0.2,1.9-0.5c0.6-0.3,1-0.8,1.4-1.3
			c0.4-0.5,0.7-1.2,0.9-1.9c0.1-0.3,0.1-0.5,0.2-0.8C49.5,98.9,49.4,98.4,49.1,98z"/>
		<g id="XMLID_40_">
			<path id="XMLID_43_" class="st7" d="M33.5,115.7l-5-7.1c-0.5-0.8-1.6-1-2.4-0.4c-0.8,0.5-1,1.6-0.4,2.4l5,7.1
				c0.3,0.4,0.7,0.6,1.1,0.7c0.1,0,0.2,0,0.3,0c0.4,0,0.7-0.1,1-0.3C33.9,117.5,34.1,116.4,33.5,115.7z"/>
			<g id="XMLID_41_">
				<path id="XMLID_42_" class="st8" d="M28.1,108.1c-0.8-0.5-1.9-0.4-2.4,0.4l-5,7.1c-0.5,0.8-0.4,1.9,0.4,2.4
					c0.3,0.2,0.6,0.3,1,0.3c0.1,0,0.2,0,0.3,0c0.5-0.1,0.9-0.3,1.1-0.7l5-7.1C29.1,109.7,28.9,108.6,28.1,108.1"/>
				<path id="XMLID_48_" class="st9" d="M27.1,107.8c-0.5,0-1.1,0.3-1.4,0.7l-0.1,0.2c-0.3,0.6-0.3,1.3,0.1,1.8l1.4,2l1.4-2
					c0.4-0.6,0.4-1.3,0.1-1.8l-0.1-0.2C28.2,108,27.7,107.8,27.1,107.8"/>
			</g>
		</g>
	</g>
	<g id="XMLID_53_">
		<g id="XMLID_110_">
			<g id="XMLID_55_">
				<g id="XMLID_85_">
					<g id="XMLID_57_">
						<path id="XMLID_174_" class="st10" d="M87.4,110.5c-0.2,0.2-0.4,0.5-0.4,0.9v1h2.5v1.8h-2.5v7.8h-2.4v-7.8h-1.3v-1.8h1.3v-0.9
							c0-0.7,0.2-1.4,0.5-1.9c0.3-0.5,0.8-0.9,1.3-1.2c0.5-0.3,1.1-0.4,1.8-0.4c0.6,0,1.2,0.1,1.8,0.4l-0.4,2
							c-0.5-0.2-0.9-0.3-1.2-0.3C88,110.2,87.7,110.3,87.4,110.5z"/>
						<path id="XMLID_176_" class="st10" d="M97.9,112.6c0.8,0.4,1.4,1,1.8,1.8c0.4,0.8,0.7,1.6,0.7,2.6c0,1-0.2,1.9-0.7,2.7
							c-0.4,0.8-1.1,1.4-1.8,1.8c-0.8,0.4-1.7,0.6-2.7,0.6c-1,0-2-0.2-2.8-0.6c-0.8-0.4-1.4-1-1.9-1.8c-0.4-0.8-0.7-1.7-0.7-2.7
							c0-1,0.2-1.9,0.7-2.6c0.4-0.8,1.1-1.4,1.9-1.8c0.8-0.4,1.7-0.6,2.8-0.6C96.2,112,97.1,112.2,97.9,112.6z M93.1,114.9
							c-0.5,0.6-0.8,1.3-0.8,2.2c0,0.9,0.3,1.6,0.8,2.2c0.5,0.6,1.2,0.8,2,0.8c0.8,0,1.5-0.3,2-0.8c0.5-0.6,0.8-1.3,0.8-2.2
							c0-0.9-0.3-1.6-0.8-2.2c-0.5-0.6-1.2-0.8-2-0.8C94.3,114.1,93.6,114.3,93.1,114.9z"/>
						<path id="XMLID_179_" class="st10" d="M102.6,108.2h2.4V122h-2.4V108.2z"/>
						<path id="XMLID_181_" class="st10" d="M114.9,122l-2.7-4.4l-1.5,1.6v2.8h-2.4v-13.8h2.4v8l4.1-4.1h2.8l-3.7,3.8l3.9,6.1H114.9
							z"/>
						<path id="XMLID_183_" class="st10" d="M123.6,114.1c-0.5-0.2-1-0.2-1.4-0.2c-0.4,0-0.7,0.1-1,0.2c-0.2,0.1-0.4,0.4-0.4,0.7
							c0,0.3,0.2,0.5,0.5,0.7c0.3,0.2,0.8,0.3,1.4,0.5c0.7,0.2,1.3,0.4,1.7,0.6c0.4,0.2,0.8,0.5,1.2,0.9c0.3,0.4,0.5,0.9,0.5,1.6
							c0,1-0.4,1.7-1.1,2.2c-0.7,0.5-1.7,0.8-2.8,0.8c-0.8,0-1.5-0.1-2.3-0.4c-0.7-0.2-1.4-0.6-1.9-1l0.8-1.7c0.4,0.4,1,0.7,1.6,0.9
							c0.6,0.2,1.2,0.3,1.8,0.3c0.4,0,0.8-0.1,1.1-0.2c0.3-0.2,0.4-0.4,0.4-0.7c0-0.3-0.2-0.6-0.5-0.8c-0.3-0.2-0.8-0.4-1.5-0.6
							c-0.7-0.2-1.2-0.4-1.6-0.6c-0.4-0.2-0.8-0.5-1.1-0.9c-0.3-0.4-0.5-0.9-0.5-1.5c0-1,0.4-1.7,1.1-2.2c0.7-0.5,1.6-0.8,2.7-0.8
							c0.7,0,1.3,0.1,1.9,0.3c0.6,0.2,1.2,0.4,1.7,0.8l-0.9,1.7C124.6,114.5,124.1,114.3,123.6,114.1z"/>
						<path id="XMLID_185_" class="st5" d="M126.5,112.1l2.5,0l2.4,7.5l2.4-7.5h2.4l2.4,7.5l2.4-7.5h2.4l-3.6,10h-2.5l-2.4-7l-2.4,7
							h-2.5L126.5,112.1z"/>
						<path id="XMLID_187_" class="st5" d="M153.7,113c0.7,0.7,1,1.6,1,2.8v6.2h-2.4v-5.5c0-0.7-0.2-1.2-0.6-1.6
							c-0.4-0.4-0.9-0.6-1.6-0.6c-0.8,0-1.4,0.3-1.9,0.8c-0.5,0.5-0.7,1.2-0.7,2v4.9H145v-13.8h2.4v5.8c0.7-1.3,1.9-2,3.6-2
							C152.1,112,153,112.3,153.7,113z"/>
						<path id="XMLID_189_" class="st5" d="M164.5,112.6c0.8,0.4,1.4,1,1.8,1.8c0.4,0.8,0.7,1.6,0.7,2.6c0,1-0.2,1.9-0.7,2.7
							c-0.4,0.8-1.1,1.4-1.8,1.8c-0.8,0.4-1.7,0.6-2.7,0.6c-1,0-2-0.2-2.8-0.6c-0.8-0.4-1.4-1-1.9-1.8c-0.4-0.8-0.7-1.7-0.7-2.7
							c0-1,0.2-1.9,0.7-2.6c0.4-0.8,1.1-1.4,1.9-1.8c0.8-0.4,1.7-0.6,2.8-0.6C162.8,112,163.7,112.2,164.5,112.6z M159.7,114.9
							c-0.5,0.6-0.8,1.3-0.8,2.2c0,0.9,0.3,1.6,0.8,2.2c0.5,0.6,1.2,0.8,2,0.8c0.8,0,1.5-0.3,2-0.8c0.5-0.6,0.8-1.3,0.8-2.2
							c0-0.9-0.3-1.6-0.8-2.2c-0.5-0.6-1.2-0.8-2-0.8C160.9,114.1,160.2,114.3,159.7,114.9z"/>
						<path id="XMLID_192_" class="st10" d="M173.3,114.1c-0.8,0-1.5,0.3-2,0.8c-0.5,0.5-0.8,1.3-0.8,2.1c0,0.9,0.3,1.6,0.8,2.2
							c0.5,0.5,1.2,0.8,2,0.8c1.2,0,2.1-0.4,2.7-1.2l1.5,1.2c-0.4,0.6-1,1.1-1.8,1.5c-0.7,0.3-1.6,0.5-2.6,0.5c-1,0-1.9-0.2-2.6-0.6
							c-0.8-0.4-1.4-1-1.8-1.8c-0.4-0.8-0.6-1.6-0.6-2.6c0-1,0.2-1.9,0.6-2.7c0.4-0.8,1-1.4,1.8-1.8c0.8-0.4,1.6-0.6,2.6-0.6
							c0.9,0,1.7,0.2,2.4,0.5s1.3,0.8,1.7,1.3l-1.5,1.4C175.3,114.5,174.4,114.1,173.3,114.1z"/>
						<path id="XMLID_194_" class="st10" d="M186.3,112.6c0.8,0.4,1.4,1,1.8,1.8c0.4,0.8,0.7,1.6,0.7,2.6c0,1-0.2,1.9-0.7,2.7
							c-0.4,0.8-1.1,1.4-1.8,1.8c-0.8,0.4-1.7,0.6-2.7,0.6c-1,0-2-0.2-2.8-0.6c-0.8-0.4-1.4-1-1.9-1.8c-0.4-0.8-0.7-1.7-0.7-2.7
							c0-1,0.2-1.9,0.7-2.6c0.4-0.8,1.1-1.4,1.9-1.8c0.8-0.4,1.7-0.6,2.8-0.6C184.6,112,185.5,112.2,186.3,112.6z M181.6,114.9
							c-0.5,0.6-0.8,1.3-0.8,2.2c0,0.9,0.3,1.6,0.8,2.2c0.5,0.6,1.2,0.8,2,0.8c0.8,0,1.5-0.3,2-0.8c0.5-0.6,0.8-1.3,0.8-2.2
							c0-0.9-0.3-1.6-0.8-2.2c-0.5-0.6-1.2-0.8-2-0.8C182.8,114.1,182.1,114.3,181.6,114.9z"/>
						<path id="XMLID_197_" class="st10" d="M200.5,108.2V122h-2.4v-1.6c-0.4,0.6-0.8,1-1.4,1.3c-0.6,0.3-1.2,0.4-2,0.4
							c-0.9,0-1.8-0.2-2.5-0.6c-0.7-0.4-1.3-1-1.7-1.8c-0.4-0.8-0.6-1.7-0.6-2.7c0-1,0.2-1.9,0.6-2.6c0.4-0.8,0.9-1.4,1.7-1.8
							c0.7-0.4,1.5-0.6,2.4-0.6c0.8,0,1.4,0.1,2,0.4c0.6,0.3,1,0.7,1.4,1.3v-5.5H200.5z M197.3,119.3c0.5-0.6,0.8-1.3,0.8-2.2
							c0-0.9-0.3-1.6-0.8-2.2c-0.5-0.6-1.2-0.8-2-0.8s-1.5,0.3-2,0.8s-0.8,1.3-0.8,2.2c0,0.9,0.3,1.6,0.8,2.2c0.5,0.6,1.2,0.8,2,0.8
							S196.8,119.8,197.3,119.3z"/>
						<path id="XMLID_200_" class="st10" d="M211.4,113.4c0.8,0.9,1.2,2.2,1.2,3.8c0,0.3,0,0.6,0,0.7h-7.4c0.2,0.7,0.5,1.3,1,1.7
							c0.5,0.4,1.1,0.6,1.9,0.6c0.5,0,1-0.1,1.5-0.3c0.5-0.2,0.9-0.5,1.2-0.8l1.3,1.4c-0.5,0.5-1.1,1-1.8,1.3
							c-0.7,0.3-1.5,0.4-2.4,0.4c-1,0-1.9-0.2-2.7-0.6c-0.8-0.4-1.4-1-1.8-1.8c-0.4-0.8-0.6-1.6-0.6-2.6s0.2-1.9,0.6-2.6
							c0.4-0.8,1-1.4,1.8-1.8c0.8-0.4,1.6-0.6,2.6-0.6C209.4,112,210.6,112.5,211.4,113.4z M210.4,116.3c0-0.7-0.3-1.3-0.7-1.8
							c-0.5-0.4-1.1-0.7-1.8-0.7c-0.7,0-1.3,0.2-1.8,0.6c-0.5,0.4-0.8,1-0.9,1.8H210.4z"/>
					</g>
				</g>
				<path id="XMLID_84_" class="st5" d="M217.6,122.1h-0.2c-0.9,0-1.7-0.8-1.7-1.7v-0.2c0-0.9,0.8-1.7,1.7-1.7h0.2
					c0.9,0,1.7,0.8,1.7,1.7v0.2C219.3,121.3,218.5,122.1,217.6,122.1z"/>
			</g>
		</g>
	</g>
</g>
</svg>
